<?xml version="1.0" standalone="no"?>
<!DOCTYPE svg PUBLIC "-//W3C//DTD SVG 1.1//EN" "http://www.w3.org/Graphics/SVG/1.1/DTD/svg11.dtd">
<svg width="12cm" height="10cm" viewBox="0 0 1000 200" xmlns="http://www.w3.org/2000/svg" version="1.1">
<title>SVG test</title>
<path d="M0.0 100.0 L 0.9765625 100.18522938650798 L 1.953125 99.34660081323301 L 2.9296875 98.97363854575718 L 3.90625 99.5906625182742 L 4.8828125 99.95658424497044 L 5.859375 99.8440106154399 L 6.8359375 98.44593073606826 L 7.8125 97.76259678833125 L 8.7890625 96.68616026929782 L 9.765625 96.6790092863231 L 10.7421875 97.16215659284289 L 11.71875 97.24061302564017 L 12.6953125 96.3006037871217 L 13.671875 95.2276965340066 L 14.6484375 94.45418847638958 L 15.625 93.33354884630889 L 16.6015625 93.05990881639461 L 17.578125 92.06932677981108 L 18.5546875 89.99323532727668 L 19.53125 88.69670274152182 L 20.5078125 88.09855431447635 L 21.484375 88.76190983078894 L 22.4609375 88.2556734655863 L 23.4375 87.82354161994085 L 24.4140625 87.36280307791313 L 25.390625 87.3074486799697 L 26.3671875 86.38835757120975 L 27.34375 84.32382832416081 L 28.3203125 82.61620697186851 L 29.296875 82.04018127354684 L 30.2734375 81.96237531883892 L 31.25 81.57630346563047 L 32.2265625 82.38010555991835 L 33.203125 83.13543103967199 L 34.1796875 82.70509934247747 L 35.15625 82.36521417355259 L 36.1328125 82.13145649319051 L 37.109375 82.19600419515942 L 38.0859375 82.60124112770609 L 39.0625 81.69308449138089 L 40.0390625 82.8282609926593 L 41.015625 82.80220693161769 L 41.9921875 83.70256190026358 L 42.96875 85.31314566539979 L 43.9453125 84.32679059391374 L 44.921875 84.21368610192346 L 45.8984375 83.8971996626232 L 46.875 84.63047652546875 L 47.8515625 84.87954755461725 L 48.828125 84.21017821881466 L 49.8046875 85.35571615020837 L 50.78125 86.17032324083924 L 51.7578125 86.42196442966113 L 52.734375 86.43266522799595 L 53.7109375 86.4918089147161 L 54.6875 87.89466577326202 L 55.6640625 88.0002030014525 L 56.640625 88.55732523378788 L 57.6171875 87.63684132339257 L 58.59375 87.1404795382835 L 59.5703125 87.36853645001716 L 60.546875 86.3982380931066 L 61.5234375 85.08935934683464 L 62.5 84.65959691676792 L 63.4765625 83.7831531771154 L 64.453125 84.17996437739438 L 65.4296875 84.49218405640015 L 66.40625 84.19505745100166 L 67.3828125 86.01956037391281 L 68.359375 86.55750089400493 L 69.3359375 86.19702952119468 L 70.3125 87.16145416059268 L 71.2890625 88.7825174963786 L 72.265625 89.28218310381577 L 73.2421875 91.23011938691685 L 74.21875 91.86947035281608 L 75.1953125 92.41882244141033 L 76.171875 92.52944851316411 L 77.1484375 93.72046293739689 L 78.125 93.71402807933829 L 79.1015625 93.48807556629933 L 80.078125 94.29799513000157 L 81.0546875 94.70225680854347 L 82.03125 94.28916180834715 L 83.0078125 93.65279887883719 L 83.984375 93.6734757877755 L 84.9609375 93.80125147737988 L 85.9375 93.83630824704348 L 86.9140625 94.82013460857812 L 87.890625 95.21656140526997 L 88.8671875 94.78821393051278 L 89.84375 94.15661965955984 L 90.8203125 93.50323448136713 L 91.796875 92.95766947243729 L 92.7734375 93.82159207577246 L 93.75 93.39794489711686 L 94.7265625 94.0519646470728 L 95.703125 95.65421413942727 L 96.6796875 96.03744738591335 L 97.65625 96.29380278685503 L 98.6328125 96.18960203306072 L 99.609375 96.20830531319962 L 100.5859375 97.04357132506073 L 101.5625 96.57278662103117 L 102.5390625 97.31511528504522 L 103.515625 98.60053860351795 L 104.4921875 98.82898603720764 L 105.46875 100.1964006038711 L 106.4453125 101.20358916460897 L 107.421875 101.83982455010711 L 108.3984375 103.18482378871448 L 109.375 103.1927069717912 L 110.3515625 103.68010534289911 L 111.328125 104.35066590092714 L 112.3046875 104.05283946721546 L 113.28125 104.25069400356826 L 114.2578125 104.83973991893912 L 115.234375 105.59390949557314 L 116.2109375 105.94061119945479 L 117.1875 105.00462370016822 L 118.1640625 104.25993967729907 L 119.140625 102.79858610171799 L 120.1171875 101.3494083934457 L 121.09375 99.98500790019787 L 122.0703125 100.51176940264892 L 123.046875 99.71311259224218 L 124.0234375 100.06210042352237 L 125.0 99.33434051015809 L 125.9765625 100.78494753533904 L 126.953125 102.1175195330204 L 127.9296875 103.69438988104895 L 128.90625 104.0186789926664 L 129.8828125 103.33565533104765 L 130.859375 103.48930018404876 L 131.8359375 103.73927256442848 L 132.8125 104.42876042401943 L 133.7890625 105.61525342508563 L 134.765625 106.81882683630786 L 135.7421875 107.8208675601387 L 136.71875 108.53915673732972 L 137.6953125 109.12763858037951 L 138.671875 108.63678125791742 L 139.6484375 109.13064706767427 L 140.625 108.97931183599927 L 141.6015625 110.44617153078144 L 142.578125 111.17091892944815 L 143.5546875 111.51198396337509 L 144.53125 112.01430182584016 L 145.5078125 112.90798880050303 L 146.484375 114.0594207325848 L 147.4609375 113.59723712128131 L 148.4375 113.80592286239902 L 149.4140625 114.86655345181305 L 150.390625 115.06936737053475 L 151.3671875 114.64473324222779 L 152.34375 114.63933839181541 L 153.3203125 115.57320969996772 L 154.296875 115.6406179127862 L 155.2734375 115.69057150261355 L 156.25 114.51778749654382 L 157.2265625 113.9786922247151 L 158.203125 112.90670840290437 L 159.1796875 113.15159339302272 L 160.15625 113.09980061853291 L 161.1328125 112.72287697617934 L 162.109375 111.9812048908184 L 163.0859375 111.56411705911582 L 164.0625 112.39821527815917 L 165.0390625 111.75437436240854 L 166.015625 111.55228173658318 L 166.9921875 112.07813793668429 L 167.96875 113.02885360461588 L 168.9453125 113.2005866919187 L 169.921875 114.40629987519257 L 170.8984375 114.28137787260117 L 171.875 115.34300902880223 L 172.8515625 115.14923115158587 L 173.828125 114.72394016517424 L 174.8046875 115.47573137363212 L 175.78125 115.8053425587947 L 176.7578125 115.97416227454703 L 177.734375 115.85500885340574 L 178.7109375 116.16286618877558 L 179.6875 115.23126674772178 L 180.6640625 114.47812293077595 L 181.640625 114.78554574633706 L 182.6171875 116.1118088081461 L 183.59375 116.28656869834076 L 184.5703125 116.81043213743703 L 185.546875 116.81399423569398 L 186.5234375 118.20157772008552 L 187.5 118.30887675997626 L 188.4765625 119.82006962740321 L 189.453125 120.54727998742779 L 190.4296875 121.99796709545807 L 191.40625 123.00172896260287 L 192.3828125 124.29244642760038 L 193.359375 125.38319959717623 L 194.3359375 126.73691712964164 L 195.3125 127.48026737997719 L 196.2890625 128.82806580756863 L 197.265625 128.9187427009923 L 198.2421875 130.46003233957546 L 199.21875 132.6778812472054 L 200.1953125 134.09305339580803 L 201.171875 134.81590629175764 L 202.1484375 136.02458957183669 L 203.125 136.89861147662518 L 204.1015625 137.06873596803217 L 205.078125 136.75128140185234 L 206.0546875 136.43654767444656 L 207.03125 135.68249806451354 L 208.0078125 136.74884545826995 L 208.984375 136.78785795511592 L 209.9609375 137.4917449924129 L 210.9375 138.99621630121408 L 211.9140625 140.6618502551006 L 212.890625 141.9602244343769 L 213.8671875 142.2000571014336 L 214.84375 143.7469890551899 L 215.8203125 144.18427342340246 L 216.796875 144.7716997700652 L 217.7734375 144.28817276149317 L 218.75 144.40692016573834 L 219.7265625 145.2539433496771 L 220.703125 146.12082612089853 L 221.6796875 146.28092286462388 L 222.65625 146.98199233701033 L 223.6328125 146.4848831169777 L 224.609375 146.4471638578822 L 225.5859375 146.3714638926853 L 226.5625 147.60413535242 L 227.5390625 147.34538262908927 L 228.515625 147.13063639345268 L 229.4921875 147.10690841520443 L 230.46875 147.39077512330155 L 231.4453125 147.5307644128457 L 232.421875 147.8853665862224 L 233.3984375 148.2673674713399 L 234.375 147.28622314306023 L 235.3515625 148.65375950698322 L 236.328125 149.06038100082984 L 237.3046875 149.51161984754927 L 238.28125 151.1960873026942 L 239.2578125 152.31750454927732 L 240.234375 152.47035518110727 L 241.2109375 152.83541775969053 L 242.1875 153.80174904539487 L 243.1640625 153.74080857603545 L 244.140625 154.21643189600758 L 245.1171875 152.98406492150596 L 246.09375 153.12284860244296 L 247.0703125 152.84031689281335 L 248.046875 153.49459194128573 L 249.0234375 154.20865337003553 L 250.0 154.57694376177326 L 250.9765625 153.11237215878938 L 251.953125 152.38155824836943 L 252.9296875 152.3438948367126 L 253.90625 151.65058212399165 L 254.8828125 148.76512876244533 L 255.859375 147.19293136841475 L 256.8359375 145.37746985217726 L 257.8125 144.4327118368815 L 258.7890625 143.75621514417318 L 259.765625 143.91592847711797 L 260.7421875 143.49327529536066 L 261.71875 142.17817748924375 L 262.6953125 142.13366398940605 L 263.671875 141.0611289317065 L 264.6484375 141.17829836702086 L 265.625 142.1115835320398 L 266.6015625 142.4952049528222 L 267.578125 142.6197636477581 L 268.5546875 141.64174896993157 L 269.53125 142.04246136440935 L 270.5078125 142.41684267733743 L 271.484375 141.67131512695656 L 272.4609375 141.43878068222878 L 273.4375 141.39502917091312 L 274.4140625 140.06429303587623 L 275.390625 139.127430217801 L 276.3671875 138.49604699654273 L 277.34375 138.49021095523622 L 278.3203125 137.57239252338897 L 279.296875 136.2447530045812 L 280.2734375 135.71004987378836 L 281.25 136.18415990744035 L 282.2265625 135.7458968898973 L 283.203125 135.05242703758807 L 284.1796875 134.48665465817106 L 285.15625 134.6230333897832 L 286.1328125 135.4939419086986 L 287.109375 136.36532037032705 L 288.0859375 137.22149224180998 L 289.0625 137.299890093786 L 290.0390625 136.54175380886218 L 291.015625 136.271561159187 L 291.9921875 134.84503386176974 L 292.96875 134.6919595444396 L 293.9453125 133.87746777614706 L 294.921875 133.32189653815462 L 295.8984375 133.57357419030166 L 296.875 133.90877554157618 L 297.8515625 132.9883107913321 L 298.828125 132.89223683323655 L 299.8046875 132.4974365733155 L 300.78125 133.2360006113142 L 301.7578125 132.46665007897587 L 302.734375 132.7486165132369 L 303.7109375 133.30803725657302 L 304.6875 134.05090329717234 L 305.6640625 133.7289264464802 L 306.640625 133.52796558367328 L 307.6171875 133.2580826968081 L 308.59375 132.63880433160105 L 309.5703125 131.13816888865568 L 310.546875 128.5753202386299 L 311.5234375 127.93124291134896 L 312.5 126.87802411849034 L 313.4765625 126.2461688196709 L 314.453125 125.14771472719363 L 315.4296875 123.66506207780242 L 316.40625 123.00035607982012 L 317.3828125 121.22651984027408 L 318.359375 119.91768486632814 L 319.3359375 118.49127631944721 L 320.3125 116.28540468202011 L 321.2890625 114.70788980145966 L 322.265625 114.21416231363142 L 323.2421875 114.44118889366106 L 324.21875 114.16616716376886 L 325.1953125 113.50544800996056 L 326.171875 112.4049120206505 L 327.1484375 112.19950745645791 L 328.125 111.04011198150215 L 329.1015625 110.03284471007913 L 330.078125 108.15805830583871 L 331.0546875 106.11636464553614 L 332.03125 104.74564720122173 L 333.0078125 104.80162136991062 L 333.984375 104.24609084997113 L 334.9609375 103.1725136235309 L 335.9375 101.53242691409123 L 336.9140625 100.94978925463542 L 337.890625 100.46302121622853 L 338.8671875 100.63505954439687 L 339.84375 101.27466416607848 L 340.8203125 100.63431107139442 L 341.796875 100.81085466635433 L 342.7734375 99.28173394642683 L 343.75 98.90384894639273 L 344.7265625 98.2442053341701 L 345.703125 97.07188679899106 L 346.6796875 96.35456965691405 L 347.65625 96.66261379788052 L 348.6328125 96.33506189448917 L 349.609375 96.09026496943136 L 350.5859375 95.90126274123654 L 351.5625 94.53521320575527 L 352.5390625 93.54832958740107 L 353.515625 93.31403110664012 L 354.4921875 93.56914420371805 L 355.46875 93.7181279733261 L 356.4453125 93.12888314688048 L 357.421875 91.78670701159326 L 358.3984375 92.2336761691525 L 359.375 92.11020868186878 L 360.3515625 91.09958638384047 L 361.328125 91.00570045979732 L 362.3046875 91.25868208436894 L 363.28125 91.93415944374132 L 364.2578125 91.52305902672599 L 365.234375 90.99209347404118 L 366.2109375 91.56933321163598 L 367.1875 91.52237715261545 L 368.1640625 91.40756963761874 L 369.140625 90.57447726507601 L 370.1171875 89.9997511177531 L 371.09375 90.80405120847712 L 372.0703125 91.11648272088746 L 373.046875 91.98896168874238 L 374.0234375 92.12449849536956 L 375.0 92.89328175344555 L 375.9765625 92.10323758827212 L 376.953125 92.30856478798286 L 377.9296875 91.85978281181319 L 378.90625 92.28656809957852 L 379.8828125 91.66571873578 L 380.859375 91.47993362610798 L 381.8359375 89.63281477566609 L 382.8125 89.10659758675014 L 383.7890625 89.20045388852289 L 384.765625 88.53395745193808 L 385.7421875 89.02239881065543 L 386.71875 88.63782235821955 L 387.6953125 87.90893066271279 L 388.671875 87.74057364393136 L 389.6484375 87.381830237599 L 390.625 88.24741079809206 L 391.6015625 89.19920106795207 L 392.578125 90.38997726761006 L 393.5546875 89.90212586729547 L 394.53125 90.39479588930244 L 395.5078125 89.78644721205914 L 396.484375 90.11349793642249 L 397.4609375 90.82805175521366 L 398.4375 92.10709364670555 L 399.4140625 91.3330389648863 L 400.390625 91.76284471787537 L 401.3671875 92.07911303094087 L 402.34375 92.3055121699194 L 403.3203125 92.39071680716948 L 404.296875 91.20390271914043 L 405.2734375 89.5985759313829 L 406.25 88.13681843420727 L 407.2265625 87.08800574319393 L 408.203125 86.24848515557713 L 409.1796875 87.02235007619086 L 410.15625 86.57707613441075 L 411.1328125 85.29118097351032 L 412.109375 84.24575152303477 L 413.0859375 83.97664958354163 L 414.0625 84.18553504690782 L 415.0390625 84.79567645009125 L 416.015625 85.24666401012502 L 416.9921875 85.99583233542103 L 417.96875 86.04090845656441 L 418.9453125 86.09452543100346 L 419.921875 87.45656220183074 L 420.8984375 87.955595348711 L 421.875 87.98030562141767 L 422.8515625 88.44322657666896 L 423.828125 89.62018992470722 L 424.8046875 88.73886901093823 L 425.78125 89.23182729539982 L 426.7578125 88.50102723059827 L 427.734375 87.89205256341484 L 428.7109375 87.50060780158329 L 429.6875 86.10770291313766 L 430.6640625 85.86296195473797 L 431.640625 84.26842424413815 L 432.6171875 82.06754197170578 L 433.59375 80.68677771616879 L 434.5703125 79.19491877101963 L 435.546875 78.31554723652079 L 436.5234375 78.35252662602186 L 437.5 77.99927754563917 L 438.4765625 78.1188560684235 L 439.453125 76.96698558994035 L 440.4296875 76.71339434415452 L 441.40625 75.65341769821686 L 442.3828125 74.67272669479563 L 443.359375 73.87111168898916 L 444.3359375 73.63849437387975 L 445.3125 74.34626692574706 L 446.2890625 73.66258619172801 L 447.265625 73.03264231076838 L 448.2421875 72.70515804128628 L 449.21875 71.83152640034598 L 450.1953125 70.91344386630938 L 451.171875 70.49759908950628 L 452.1484375 69.71413716365713 L 453.125 69.97934722113617 L 454.1015625 71.10999464849269 L 455.078125 71.02280921252549 L 456.0546875 71.19047849371583 L 457.03125 71.15186849686465 L 458.0078125 70.24113060001407 L 458.984375 70.2776370917943 L 459.9609375 71.35422180936422 L 460.9375 71.07095282699835 L 461.9140625 72.09366236684754 L 462.890625 71.92545014007217 L 463.8671875 72.15574557946378 L 464.84375 72.82817765855303 L 465.8203125 72.92830297574832 L 466.796875 73.52694621160786 L 467.7734375 73.67128057625993 L 468.75 73.2919509747581 L 469.7265625 74.09256150249664 L 470.703125 73.83205100409205 L 471.6796875 75.02434856890552 L 472.65625 74.94904860257603 L 473.6328125 75.19509801969019 L 474.609375 76.36797072667252 L 475.5859375 78.21116474004934 L 476.5625 79.69218414706998 L 477.5390625 78.58596319551899 L 478.515625 78.27641224737476 L 479.4921875 78.75230781775893 L 480.46875 78.31779101695231 L 481.4453125 78.82796581826959 L 482.421875 79.90660698737004 L 483.3984375 79.63405641176485 L 484.375 79.4858673997232 L 485.3515625 79.18420956233794 L 486.328125 79.37132798728932 L 487.3046875 78.29423394741025 L 488.28125 77.30939928668006 L 489.2578125 76.05102323375992 L 490.234375 75.43083604887248 L 491.2109375 75.78589671829849 L 492.1875 75.34114655096657 L 493.1640625 75.006472551007 L 494.140625 73.82594222962253 L 495.1171875 74.42246917225516 L 496.09375 74.16333058708602 L 497.0703125 75.07060624949493 L 498.046875 76.61955411269274 L 499.0234375 76.82711672387397 L 500.0 77.50819976761521 L 500.9765625 78.55671597131024 L 501.953125 79.25957517444844 L 502.9296875 80.3398285267378 L 503.90625 82.42730204891396 L 504.8828125 83.6023644268292 L 505.859375 84.1435184474754 L 506.8359375 85.53455945742894 L 507.8125 85.88636250996547 L 508.7890625 86.71718005488793 L 509.765625 86.39894180859076 L 510.7421875 86.79725273820844 L 511.71875 87.78605231363683 L 512.6953125 88.08989596211696 L 513.671875 89.18411598572791 L 514.6484375 89.43114847815774 L 515.625 89.04535082080405 L 516.6015625 90.15164851478927 L 517.578125 91.66403466330961 L 518.5546875 93.1423097097577 L 519.53125 95.46536872562197 L 520.5078125 97.6738568225108 L 521.484375 98.61125449380255 L 522.4609375 99.29925283319179 L 523.4375 100.02060174907534 L 524.4140625 100.76805137169357 L 525.390625 101.97502260653948 L 526.3671875 102.0039304454306 L 527.34375 102.45459798720167 L 528.3203125 103.43768430000439 L 529.296875 104.51165527698132 L 530.2734375 106.11483378189222 L 531.25 107.329402331824 L 532.2265625 108.3296857095314 L 533.203125 110.56966372071298 L 534.1796875 112.0530613237114 L 535.15625 112.31877414804123 L 536.1328125 111.97348504919509 L 537.109375 111.93419398968985 L 538.0859375 111.74094599998297 L 539.0625 112.8833338732638 L 540.0390625 114.1797745348045 L 541.015625 115.33099573538776 L 541.9921875 116.01919371354046 L 542.96875 115.71559501828375 L 543.9453125 117.02008910424004 L 544.921875 117.91758754936494 L 545.8984375 118.01351660340507 L 546.875 118.13836159327549 L 547.8515625 117.59978520688573 L 548.828125 116.95658333190977 L 549.8046875 116.59066488214106 L 550.78125 116.35589551362004 L 551.7578125 117.30566026733062 L 552.734375 117.92475552777675 L 553.7109375 118.98775119370318 L 554.6875 119.13498718930215 L 555.6640625 119.13227442451655 L 556.640625 120.23069154518771 L 557.6171875 121.79094991496355 L 558.59375 122.03355312225732 L 559.5703125 123.44336367076893 L 560.546875 123.69470266029525 L 561.5234375 124.80493923765694 L 562.5 125.30763601900242 L 563.4765625 124.2729214815093 L 564.453125 124.4494015852965 L 565.4296875 123.62317076397669 L 566.40625 122.7815977017128 L 567.3828125 122.71559830240517 L 568.359375 123.09919130382325 L 569.3359375 123.67591275539793 L 570.3125 123.5418148845012 L 571.2890625 123.74414267197416 L 572.265625 124.38736813128273 L 573.2421875 124.68967440848529 L 574.21875 125.49422131104255 L 575.1953125 126.40407730962926 L 576.171875 127.75394547937609 L 577.1484375 127.62898137105165 L 578.125 128.2530913119446 L 579.1015625 127.8283844480558 L 580.078125 126.45794247350773 L 581.0546875 126.61324655854015 L 582.03125 125.41583953064155 L 583.0078125 125.83494512332561 L 583.984375 125.85742157696451 L 584.9609375 124.62054680386068 L 585.9375 123.83883451911228 L 586.9140625 122.94290018048761 L 587.890625 123.20460378513374 L 588.8671875 123.85477540744063 L 589.84375 124.43375367507628 L 590.8203125 123.82836141904856 L 591.796875 124.4444825603714 L 592.7734375 124.3477627521679 L 593.75 123.06148854618095 L 594.7265625 123.69965415336752 L 595.703125 125.18559549348132 L 596.6796875 125.76568593572914 L 597.65625 126.64863053895373 L 598.6328125 128.46051836009178 L 599.609375 129.09741057917526 L 600.5859375 129.8244736916246 L 601.5625 129.9781194655589 L 602.5390625 131.048311070231 L 603.515625 130.77228851236956 L 604.4921875 131.294765232459 L 605.46875 131.50125647308926 L 606.4453125 131.8543006537395 L 607.421875 133.19962701585246 L 608.3984375 132.9700961640817 L 609.375 132.8613760407436 L 610.3515625 133.1876028029435 L 611.328125 132.7314646812014 L 612.3046875 132.26771734308613 L 613.28125 131.712320655142 L 614.2578125 133.0766059597857 L 615.234375 133.66653452411805 L 616.2109375 133.34398126008674 L 617.1875 133.7464929417699 L 618.1640625 134.66310046141888 L 619.140625 136.42250271437712 L 620.1171875 136.20258993855688 L 621.09375 136.6097741539141 L 622.0703125 137.1228188981387 L 623.046875 138.02557065046756 L 624.0234375 138.57769104292439 L 625.0 137.7584817782397 L 625.9765625 137.27229662725404 L 626.953125 136.2409808969674 L 627.9296875 136.72902802483134 L 628.90625 136.8533653885574 L 629.8828125 136.1601003887229 L 630.859375 135.6718070499758 L 631.8359375 134.90390292687852 L 632.8125 135.0449712978048 L 633.7890625 134.86148101642996 L 634.765625 135.0035538141448 L 635.7421875 136.17439850244557 L 636.71875 136.87097898626465 L 637.6953125 136.90231809139613 L 638.671875 136.45656797566042 L 639.6484375 135.61462755710943 L 640.625 135.7771870431131 L 641.6015625 136.75567086163278 L 642.578125 136.668960318513 L 643.5546875 136.6834138666294 L 644.53125 137.1293712064718 L 645.5078125 137.64718392614967 L 646.484375 137.32355893536874 L 647.4609375 138.70047782999285 L 648.4375 138.99317097679338 L 649.4140625 139.08947041074958 L 650.390625 139.82144359122836 L 651.3671875 141.23061939292526 L 652.34375 142.44477105719326 L 653.3203125 143.56268923979886 L 654.296875 145.078177540738 L 655.2734375 146.6657333926904 L 656.25 147.99448624792691 L 657.2265625 147.39165520020606 L 658.203125 146.49701745797526 L 659.1796875 147.17422427902753 L 660.15625 146.9204193595204 L 661.1328125 147.18001763511356 L 662.109375 148.1411385054947 L 663.0859375 148.1635073025695 L 664.0625 147.6785112974999 L 665.0390625 147.02667256576106 L 666.015625 147.35424029294273 L 666.9921875 148.1729020946165 L 667.96875 149.00814403797034 L 668.9453125 148.1294966674463 L 669.921875 147.12075335807083 L 670.8984375 147.883951214629 L 671.875 147.41815061575747 L 672.8515625 147.33769373683342 L 673.828125 147.82554685416 L 674.8046875 147.154680360105 L 675.78125 146.053486590618 L 676.7578125 144.76966384222624 L 677.734375 143.40576809725448 L 678.7109375 142.91409910106142 L 679.6875 142.7416360284443 L 680.6640625 142.48153589282256 L 681.640625 141.24833640727715 L 682.6171875 141.8399912872399 L 683.59375 141.71679693751534 L 684.5703125 141.14418616895887 L 685.546875 140.2646066404096 L 686.5234375 138.83389278575544 L 687.5 137.94952675885438 L 688.4765625 138.45707240511925 L 689.453125 139.7636631844187 L 690.4296875 140.11723864453847 L 691.40625 139.45012493334522 L 692.3828125 138.98881681970025 L 693.359375 139.05517754856427 L 694.3359375 139.15568362012687 L 695.3125 140.4428943924286 L 696.2890625 141.9490905021088 L 697.265625 142.2247334522764 L 698.2421875 142.8990692151712 L 699.21875 142.7230839738574 L 700.1953125 141.68635084013096 L 701.171875 140.49060875908162 L 702.1484375 140.51629575397783 L 703.125 140.5887708761198 L 704.1015625 139.5123943731204 L 705.078125 138.631791135573 L 706.0546875 137.19015080223448 L 707.03125 136.85166297207698 L 708.0078125 135.21128046830134 L 708.984375 134.4903649801024 L 709.9609375 133.5266517104506 L 710.9375 132.91282271073467 L 711.9140625 132.33122986194442 L 712.890625 131.6855887419918 L 713.8671875 131.49615964163445 L 714.84375 130.92055325645896 L 715.8203125 131.39957174738976 L 716.796875 132.97172384384385 L 717.7734375 133.61514935047006 L 718.75 133.41522683957473 L 719.7265625 133.7231681561748 L 720.703125 134.10022782206693 L 721.6796875 133.81741920406236 L 722.65625 132.55658608313607 L 723.6328125 132.26347903071849 L 724.609375 132.87208797242727 L 725.5859375 132.90871091872762 L 726.5625 132.93540129147607 L 727.5390625 132.32952815968338 L 728.515625 131.90476958071443 L 729.4921875 132.84393050278226 L 730.46875 132.88381503944296 L 731.4453125 132.26671978479513 L 732.421875 132.03170446133535 L 733.3984375 131.54563109498696 L 734.375 131.2555454600381 L 735.3515625 131.94062341824625 L 736.328125 132.54541256022694 L 737.3046875 131.41522728116587 L 738.28125 131.34765073555207 L 739.2578125 130.1199095162651 L 740.234375 129.80013747231638 L 741.2109375 129.20208740110547 L 742.1875 127.90548796121446 L 743.1640625 127.79278815571197 L 744.140625 127.09792456416022 L 745.1171875 127.13492088850107 L 746.09375 126.62179719060265 L 747.0703125 126.72944486135688 L 748.046875 126.35852933264933 L 749.0234375 125.96172899646815 L 750.0 126.258349054027 L 750.9765625 126.96879959881062 L 751.953125 128.72780018210338 L 752.9296875 129.10064659327566 L 753.90625 130.30105770614776 L 754.8828125 131.57350823301698 L 755.859375 131.91693882519536 L 756.8359375 132.35769958965292 L 757.8125 132.18560290791112 L 758.7890625 132.90491220272273 L 759.765625 132.70962707476977 L 760.7421875 133.76602840280515 L 761.71875 134.1600269171805 L 762.6953125 134.56456076336914 L 763.671875 135.13908663641254 L 764.6484375 135.1363365953658 L 765.625 134.5662355312315 L 766.6015625 135.3173873094193 L 767.578125 137.14644088325198 L 768.5546875 137.10844241007993 L 769.53125 137.84755552973894 L 770.5078125 139.0489316779074 L 771.484375 139.0371605529215 L 772.4609375 138.67634164119207 L 773.4375 138.8218117789842 L 774.4140625 138.61290995185163 L 775.390625 138.90937692229016 L 776.3671875 139.31667809019262 L 777.34375 139.25592650985723 L 778.3203125 139.6882612545308 L 779.296875 139.71534001284667 L 780.2734375 139.44648738783258 L 781.25 138.80400237859004 L 782.2265625 137.76836502964892 L 783.203125 135.97955210382483 L 784.1796875 135.8213569110562 L 785.15625 135.4586603159766 L 786.1328125 136.40282811963417 L 787.109375 136.2285501786458 L 788.0859375 136.31233646288925 L 789.0625 135.3611743913826 L 790.0390625 136.2204163137803 L 791.015625 136.14540499953054 L 791.9921875 136.44225968162465 L 792.96875 137.22243859453695 L 793.9453125 138.26526476351182 L 794.921875 138.09087670837818 L 795.8984375 138.7840025620215 L 796.875 138.54498131218458 L 797.8515625 138.0862682663031 L 798.828125 137.58198200139077 L 799.8046875 137.62456044691245 L 800.78125 138.7011336112272 L 801.7578125 137.92033959063707 L 802.734375 136.84563815789187 L 803.7109375 136.02222083716114 L 804.6875 135.1823975902598 L 805.6640625 136.33845612114496 L 806.640625 136.84417494064743 L 807.6171875 136.2033213153012 L 808.59375 136.02148912510117 L 809.5703125 136.36663249955262 L 810.546875 137.34022752218524 L 811.5234375 137.59701235303794 L 812.5 138.9839785448742 L 813.4765625 139.28178368727572 L 814.453125 138.97197865462707 L 815.4296875 138.64438855523295 L 816.40625 138.2767001048512 L 817.3828125 138.60635007059807 L 818.359375 137.98970924977615 L 819.3359375 137.82977259557452 L 820.3125 137.97561008797828 L 821.2890625 137.3369711805395 L 822.265625 135.8329248898135 L 823.2421875 136.13766241984075 L 824.21875 135.76900708523343 L 825.1953125 135.74440018369322 L 826.171875 135.3634920576648 L 827.1484375 135.41502660132264 L 828.125 136.44375802021145 L 829.1015625 136.69616820783807 L 830.078125 138.15077488069747 L 831.0546875 139.26921207438866 L 832.03125 139.81956328292947 L 833.0078125 139.36017000266338 L 833.984375 138.43439647428198 L 834.9609375 138.40035057339927 L 835.9375 139.0484308939063 L 836.9140625 138.60573020863032 L 837.890625 137.9295162649477 L 838.8671875 136.59060332227503 L 839.84375 136.52182967560336 L 840.8203125 136.21727439774824 L 841.796875 136.93246226174426 L 842.7734375 136.47160018117322 L 843.75 135.15761046763072 L 844.7265625 135.69675487812898 L 845.703125 137.60088669961746 L 846.6796875 137.49783883998327 L 847.65625 138.65490292183617 L 848.6328125 140.66449765065036 L 849.609375 141.4821169783623 L 850.5859375 142.55506481964713 L 851.5625 143.3173980513589 L 852.5390625 144.97063410392212 L 853.515625 146.5785733012036 L 854.4921875 147.4066795377814 L 855.46875 147.94553161562806 L 856.4453125 148.12005899026275 L 857.421875 147.6854711100489 L 858.3984375 148.17195119027485 L 859.375 149.37685375823278 L 860.3515625 148.85730572441028 L 861.328125 149.65507730779595 L 862.3046875 149.98137503774137 L 863.28125 149.5823708634766 L 864.2578125 149.54534287780422 L 865.234375 149.28364210255327 L 866.2109375 148.29581222350484 L 867.1875 147.49577523311956 L 868.1640625 146.87003951906794 L 869.140625 147.18516789433966 L 870.1171875 147.05791646524372 L 871.09375 147.68835936851536 L 872.0703125 148.40782963985092 L 873.046875 149.445434435174 L 874.0234375 149.297207880825 L 875.0 148.8813856109737 L 875.9765625 148.5243207114216 L 876.953125 148.6932519627772 L 877.9296875 147.7948932146153 L 878.90625 147.24594438971286 L 879.8828125 146.2182668095846 L 880.859375 145.6611679502328 L 881.8359375 143.77555803003082 L 882.8125 142.67321223498334 L 883.7890625 141.63593030514474 L 884.765625 139.629393150055 L 885.7421875 138.07169617341907 L 886.71875 137.38351692766392 L 887.6953125 136.9646609781815 L 888.671875 137.4936616796997 L 889.6484375 136.2069850141439 L 890.625 135.55405834187982 L 891.6015625 133.6058283175989 L 892.578125 132.97968229888494 L 893.5546875 132.8833865262816 L 894.53125 131.7111681924867 L 895.5078125 130.74020248030052 L 896.484375 129.61813796101663 L 897.4609375 127.27540132715633 L 898.4375 125.98566597142144 L 899.4140625 125.71419623494353 L 900.390625 124.65083422826746 L 901.3671875 125.13115728063835 L 902.34375 125.46757326079808 L 903.3203125 125.83950545719648 L 904.296875 125.23829958321483 L 905.2734375 124.77938219827094 L 906.25 123.33104920435423 L 907.2265625 122.72428906035617 L 908.203125 121.6302876523566 L 909.1796875 121.79983064744677 L 910.15625 121.10816823141204 L 911.1328125 120.96788689106208 L 912.109375 119.85245914939304 L 913.0859375 120.35974786865778 L 914.0625 121.02833145186689 L 915.0390625 120.34656329063009 L 916.015625 118.96972341063379 L 916.9921875 117.33617927276666 L 917.96875 116.53142356177754 L 918.9453125 115.57859869154092 L 919.921875 114.6916755879038 L 920.8984375 112.9633641755761 L 921.875 111.73677880889707 L 922.8515625 110.58984485093235 L 923.828125 110.44835402544729 L 924.8046875 110.82386517993199 L 925.78125 110.74420926136605 L 926.7578125 110.33646212951487 L 927.734375 109.34376331064612 L 928.7109375 108.76328436388705 L 929.6875 108.99864274612634 L 930.6640625 108.95854847136218 L 931.640625 108.36539131560387 L 932.6171875 108.24949112454556 L 933.59375 107.00253244824776 L 934.5703125 106.01426442019097 L 935.546875 104.59797891542313 L 936.5234375 104.64859696000795 L 937.5 104.21692221271839 L 938.4765625 104.61477275869902 L 939.453125 104.00930722261394 L 940.4296875 104.34857591707114 L 941.40625 105.12229670679665 L 942.3828125 103.14992580161943 L 943.359375 102.49482660662052 L 944.3359375 102.45068493335508 L 945.3125 101.74012411487499 L 946.2890625 101.76736081579982 L 947.265625 102.24125800255777 L 948.2421875 102.63277458253471 L 949.21875 102.03503791250488 L 950.1953125 102.98566000296319 L 951.171875 103.14724655261558 L 952.1484375 103.54589784041428 L 953.125 104.9319119655933 L 954.1015625 105.51658292306627 L 955.078125 105.72591041890114 L 956.0546875 107.08836182701522 L 957.03125 107.83761089311423 L 958.0078125 107.89695567422517 L 958.984375 107.15654109258854 L 959.9609375 107.3472221788703 L 960.9375 108.37550948321825 L 961.9140625 108.43157865199748 L 962.890625 108.16355261090835 L 963.8671875 108.19456482777991 L 964.84375 108.43798431369956 L 965.8203125 107.73125246850638 L 966.796875 107.44423450001186 L 967.7734375 108.02848260008994 L 968.75 107.26119570752903 L 969.7265625 107.75718699936078 L 970.703125 107.10263709705936 L 971.6796875 106.6859552425 L 972.65625 106.99111194032609 L 973.6328125 106.78194748116358 L 974.609375 105.62473537595704 L 975.5859375 104.4622835787691 L 976.5625 103.35872520520905 L 977.5390625 102.77759698608257 L 978.515625 103.02368507743864 L 979.4921875 102.00408615223115 L 980.46875 100.9535372249887 L 981.4453125 100.59176014246256 L 982.421875 101.39214449627087 L 983.3984375 100.56908285803317 L 984.375 100.71553207919781 L 985.3515625 101.20342540117161 L 986.328125 100.47008569558761 L 987.3046875 100.13009156429695 L 988.28125 100.36235607250102 L 989.2578125 99.50705639335608 L 990.234375 99.89840234658176 L 991.2109375 101.00494866697085 L 992.1875 101.77728392171437 L 993.1640625 100.91968627284996 L 994.140625 101.37298319887473 L 995.1171875 101.15213294341645 L 996.09375 101.5274527605079 L 997.0703125 101.69330819115838 L 998.046875 100.73193944952416 L 999.0234375 100.67986563307787 L 1000.0 100.0 " fill="none" stroke="black" stroke-width="3"/>
</svg>
